<?xml version="1.0" encoding="utf-8"?>
<!-- Generator: Adobe Illustrator 27.2.0, SVG Export Plug-In . SVG Version: 6.00 Build 0)  -->
<svg version="1.1" id="Слой_1" xmlns="http://www.w3.org/2000/svg" xmlns:xlink="http://www.w3.org/1999/xlink" x="0px" y="0px"
	 viewBox="0 0 64 64" style="enable-background:new 0 0 64 64;" xml:space="preserve">
<style type="text/css">
	.st0{fill:none;stroke:#000000;stroke-width:2;stroke-linecap:round;stroke-linejoin:round;stroke-miterlimit:10;}
	.st1{fill:#FFFFFF;stroke:#000000;stroke-width:2;stroke-linecap:round;stroke-linejoin:round;stroke-miterlimit:10;}
	.st2{stroke:#000000;stroke-width:2;stroke-miterlimit:10;}
	.st3{fill:#FFFFFF;stroke:#FFFFFF;stroke-width:2;stroke-linecap:round;stroke-linejoin:round;stroke-miterlimit:10;}
	.st4{fill:#FFFFFF;}
</style>
<path class="st0" d="M16.1,20.1c0,7.9-0.1,15.8-0.1,23.7L48,44l-0.3-24L16.1,20.1z"/>
<line class="st1" x1="16.3" y1="27.7" x2="47.8" y2="27.7"/>
<path class="st1" d="M47.8,35.8"/>
<path class="st1" d="M16.2,35.7"/>
<line class="st1" x1="16" y1="35.8" x2="47.6" y2="35.9"/>
<line class="st0" x1="26.5" y1="43.7" x2="26.5" y2="20"/>
<line class="st0" x1="37.5" y1="43.7" x2="37.5" y2="20"/>
<path class="st2" d="M47.8,20H16.2v-0.9c0-3.9,3.2-7.1,7.1-7.1h17.3c3.9,0,7.1,3.2,7.1,7.1V20z"/>
<g>
	<polygon class="st3" points="48.4,34.1 46.1,26.7 38.7,24.4 45,19.9 45,12.2 51.2,16.8 58.6,14.3 56.1,21.6 60.7,27.9 52.9,27.8 	
		"/>
	<path class="st0" d="M44.5,23.6"/>
	
		<rect x="29.4" y="18.7" transform="matrix(0.6905 0.7233 -0.7233 0.6905 37.7745 -13.9263)" class="st4" width="11.4" height="37"/>
	<rect x="33.9" y="20.2" transform="matrix(0.6905 0.7233 -0.7233 0.6905 37.272 -14.7809)" class="st1" width="4" height="32"/>
	<polygon class="st1" points="48.5,30.9 46.9,25.5 41.5,23.9 46.3,20.5 46.3,14.8 50.8,18.2 56.3,16.2 54.3,21.6 57.6,26.1 
		51.9,26.2 	"/>
</g>
</svg>
